<svg width="1840" height="145"><g width="1840" height="50"><text x="920" y="25" style="text-anchor: middle; dominant-baseline: middle; overflow: visible; font-size: 30px;">Microhomology scheme: BranchΔ, sgRNA A, Reverse strand</text></g><g transform="translate(0, 53)" width="1840" height="92"><g transform="translate(100, 23)" width="1740" height="20"><g fill="none" font-size="10" font-family="sans-serif" text-anchor="middle"><path class="domain" stroke="currentColor" d="M5.5,6V0.5H1735.5V6"></path><g class="tick" opacity="1" transform="translate(45.5,0)"><line stroke="currentColor" y2="6"></line><text fill="currentColor" y="9" dy="0.71em">5</text></g><g class="tick" opacity="1" transform="translate(95.5,0)"><line stroke="currentColor" y2="6"></line><text fill="currentColor" y="9" dy="0.71em">10</text></g><g class="tick" opacity="1" transform="translate(145.50000000000003,0)"><line stroke="currentColor" y2="6"></line><text fill="currentColor" y="9" dy="0.71em">15</text></g><g class="tick" opacity="1" transform="translate(195.5,0)"><line stroke="currentColor" y2="6"></line><text fill="currentColor" y="9" dy="0.71em">20</text></g><g class="tick" opacity="1" transform="translate(245.49999999999997,0)"><line stroke="currentColor" y2="6"></line><text fill="currentColor" y="9" dy="0.71em">25</text></g><g class="tick" opacity="1" transform="translate(295.5,0)"><line stroke="currentColor" y2="6"></line><text fill="currentColor" y="9" dy="0.71em">30</text></g><g class="tick" opacity="1" transform="translate(345.50000000000006,0)"><line stroke="currentColor" y2="6"></line><text fill="currentColor" y="9" dy="0.71em">35</text></g><g class="tick" opacity="1" transform="translate(395.5,0)"><line stroke="currentColor" y2="6"></line><text fill="currentColor" y="9" dy="0.71em">40</text></g><g class="tick" opacity="1" transform="translate(445.5,0)"><line stroke="currentColor" y2="6"></line><text fill="currentColor" y="9" dy="0.71em">45</text></g><g class="tick" opacity="1" transform="translate(495.5,0)"><line stroke="currentColor" y2="6"></line><text fill="currentColor" y="9" dy="0.71em">50</text></g><g class="tick" opacity="1" transform="translate(545.5,0)"><line stroke="currentColor" y2="6"></line><text fill="currentColor" y="9" dy="0.71em">55</text></g><g class="tick" opacity="1" transform="translate(595.5,0)"><line stroke="currentColor" y2="6"></line><text fill="currentColor" y="9" dy="0.71em">60</text></g><g class="tick" opacity="1" transform="translate(645.5,0)"><line stroke="currentColor" y2="6"></line><text fill="currentColor" y="9" dy="0.71em">65</text></g><g class="tick" opacity="1" transform="translate(695.5,0)"><line stroke="currentColor" y2="6"></line><text fill="currentColor" y="9" dy="0.71em">70</text></g><g class="tick" opacity="1" transform="translate(745.5,0)"><line stroke="currentColor" y2="6"></line><text fill="currentColor" y="9" dy="0.71em">75</text></g><g class="tick" opacity="1" transform="translate(795.5,0)"><line stroke="currentColor" y2="6"></line><text fill="currentColor" y="9" dy="0.71em">80</text></g><g class="tick" opacity="1" transform="translate(845.5,0)"><line stroke="currentColor" y2="6"></line><text fill="currentColor" y="9" dy="0.71em">85</text></g><g class="tick" opacity="1" transform="translate(895.5,0)"><line stroke="currentColor" y2="6"></line><text fill="currentColor" y="9" dy="0.71em">90</text></g><g class="tick" opacity="1" transform="translate(945.5,0)"><line stroke="currentColor" y2="6"></line><text fill="currentColor" y="9" dy="0.71em">95</text></g><g class="tick" opacity="1" transform="translate(995.5,0)"><line stroke="currentColor" y2="6"></line><text fill="currentColor" y="9" dy="0.71em">100</text></g><g class="tick" opacity="1" transform="translate(1045.5,0)"><line stroke="currentColor" y2="6"></line><text fill="currentColor" y="9" dy="0.71em">105</text></g><g class="tick" opacity="1" transform="translate(1095.5,0)"><line stroke="currentColor" y2="6"></line><text fill="currentColor" y="9" dy="0.71em">110</text></g><g class="tick" opacity="1" transform="translate(1145.5,0)"><line stroke="currentColor" y2="6"></line><text fill="currentColor" y="9" dy="0.71em">115</text></g><g class="tick" opacity="1" transform="translate(1195.5,0)"><line stroke="currentColor" y2="6"></line><text fill="currentColor" y="9" dy="0.71em">120</text></g><g class="tick" opacity="1" transform="translate(1245.5,0)"><line stroke="currentColor" y2="6"></line><text fill="currentColor" y="9" dy="0.71em">125</text></g><g class="tick" opacity="1" transform="translate(1295.5,0)"><line stroke="currentColor" y2="6"></line><text fill="currentColor" y="9" dy="0.71em">130</text></g><g class="tick" opacity="1" transform="translate(1345.5,0)"><line stroke="currentColor" y2="6"></line><text fill="currentColor" y="9" dy="0.71em">135</text></g><g class="tick" opacity="1" transform="translate(1395.5,0)"><line stroke="currentColor" y2="6"></line><text fill="currentColor" y="9" dy="0.71em">140</text></g><g class="tick" opacity="1" transform="translate(1445.5000000000002,0)"><line stroke="currentColor" y2="6"></line><text fill="currentColor" y="9" dy="0.71em">145</text></g><g class="tick" opacity="1" transform="translate(1495.5,0)"><line stroke="currentColor" y2="6"></line><text fill="currentColor" y="9" dy="0.71em">150</text></g><g class="tick" opacity="1" transform="translate(1545.5,0)"><line stroke="currentColor" y2="6"></line><text fill="currentColor" y="9" dy="0.71em">155</text></g><g class="tick" opacity="1" transform="translate(1595.5,0)"><line stroke="currentColor" y2="6"></line><text fill="currentColor" y="9" dy="0.71em">160</text></g><g class="tick" opacity="1" transform="translate(1645.4999999999998,0)"><line stroke="currentColor" y2="6"></line><text fill="currentColor" y="9" dy="0.71em">165</text></g><g class="tick" opacity="1" transform="translate(1695.5,0)"><line stroke="currentColor" y2="6"></line><text fill="currentColor" y="9" dy="0.71em">170</text></g></g></g><g transform="translate(100, 46)" width="1740" height="20" style="overflow: visible;"><rect x="0" y="0" width="460" height="20" style="fill: rgb(68, 114, 196);"></rect><text text-anchor="middle" transform="translate(230, 10)" dy=".5ex">DS Red</text><rect x="460" y="0" width="560" height="20" style="fill: rgb(0, 176, 80);"></rect><text text-anchor="middle" transform="translate(740, 10)" dy=".5ex">Intron</text><rect x="1020" y="0" width="720" height="20" style="fill: rgb(68, 114, 196);"></rect><text text-anchor="middle" transform="translate(1380, 10)" dy=".5ex">DS Red</text></g><g transform="translate(100, 69)" width="1740" height="20"><rect x="0" y="0" width="200" height="20" style="fill: rgba(0, 0, 0, 0); fill-opacity: 0; stroke: purple; stroke-opacity: 1; stroke-width: 3;"></rect><text text-anchor="middle" x="95" y="10" dy=".5ex">Primer</text><rect x="1540" y="0" width="200" height="20" style="fill: rgba(0, 0, 0, 0); fill-opacity: 0; stroke: purple; stroke-opacity: 1; stroke-width: 3;"></rect><text text-anchor="middle" x="1635" y="10" dy=".5ex">Primer</text></g><g transform="translate(100, 69)" width="1740" height="20"><rect x="200" y="0" width="260" height="20" style="fill: rgba(0, 0, 0, 0); fill-opacity: 0; stroke: rgb(68, 114, 196); stroke-opacity: 1; stroke-width: 3;"></rect><text text-anchor="middle" transform="translate(330, 10)" dy=".5ex">Exon2</text><rect x="460" y="0" width="560" height="20" style="fill: rgba(0, 0, 0, 0); fill-opacity: 0; stroke: rgb(0, 176, 80); stroke-opacity: 1; stroke-width: 3;"></rect><text text-anchor="middle" transform="translate(740, 10)" dy=".5ex">Intron</text><rect x="1020" y="0" width="520" height="20" style="fill: rgba(0, 0, 0, 0); fill-opacity: 0; stroke: rgb(68, 114, 196); stroke-opacity: 1; stroke-width: 3;"></rect><text text-anchor="middle" transform="translate(1280, 10)" dy=".5ex">Exon1</text></g><g transform="translate(0, 92)" width="100" height="0" style="overflow: visible;"></g><g transform="translate(100, 92)" height="0" style="overflow: visible;"></g><line x1="1170" x2="1170" y1="23" y2="92" style="stroke: red; stroke-width: 2;"></line><text text-anchor="middle" x="1170" y="10" dy=".5ex" style="fill: red; font-weight: bold;">DSB</text></g></svg>