<svg width="1840" height="145"><g width="1840" height="50"><text x="920" y="25" style="text-anchor: middle; dominant-baseline: middle; overflow: visible; font-size: 30px;">Microhomology scheme: BranchΔ, sgRNA B, forward strand</text></g><g transform="translate(0, 53)" width="1840" height="92"><g transform="translate(100, 23)" width="1740" height="20"><g fill="none" font-size="10" font-family="sans-serif" text-anchor="middle"><path class="domain" stroke="currentColor" d="M5,6V0H1735V6"></path><g class="tick" opacity="1" transform="translate(45,0)"><line stroke="currentColor" y2="6"></line><text fill="currentColor" y="9" dy="0.71em">5</text></g><g class="tick" opacity="1" transform="translate(95,0)"><line stroke="currentColor" y2="6"></line><text fill="currentColor" y="9" dy="0.71em">10</text></g><g class="tick" opacity="1" transform="translate(145.00000000000003,0)"><line stroke="currentColor" y2="6"></line><text fill="currentColor" y="9" dy="0.71em">15</text></g><g class="tick" opacity="1" transform="translate(195,0)"><line stroke="currentColor" y2="6"></line><text fill="currentColor" y="9" dy="0.71em">20</text></g><g class="tick" opacity="1" transform="translate(244.99999999999997,0)"><line stroke="currentColor" y2="6"></line><text fill="currentColor" y="9" dy="0.71em">25</text></g><g class="tick" opacity="1" transform="translate(295,0)"><line stroke="currentColor" y2="6"></line><text fill="currentColor" y="9" dy="0.71em">30</text></g><g class="tick" opacity="1" transform="translate(345.00000000000006,0)"><line stroke="currentColor" y2="6"></line><text fill="currentColor" y="9" dy="0.71em">35</text></g><g class="tick" opacity="1" transform="translate(395,0)"><line stroke="currentColor" y2="6"></line><text fill="currentColor" y="9" dy="0.71em">40</text></g><g class="tick" opacity="1" transform="translate(445,0)"><line stroke="currentColor" y2="6"></line><text fill="currentColor" y="9" dy="0.71em">45</text></g><g class="tick" opacity="1" transform="translate(495,0)"><line stroke="currentColor" y2="6"></line><text fill="currentColor" y="9" dy="0.71em">50</text></g><g class="tick" opacity="1" transform="translate(545,0)"><line stroke="currentColor" y2="6"></line><text fill="currentColor" y="9" dy="0.71em">55</text></g><g class="tick" opacity="1" transform="translate(595,0)"><line stroke="currentColor" y2="6"></line><text fill="currentColor" y="9" dy="0.71em">60</text></g><g class="tick" opacity="1" transform="translate(645,0)"><line stroke="currentColor" y2="6"></line><text fill="currentColor" y="9" dy="0.71em">65</text></g><g class="tick" opacity="1" transform="translate(695,0)"><line stroke="currentColor" y2="6"></line><text fill="currentColor" y="9" dy="0.71em">70</text></g><g class="tick" opacity="1" transform="translate(745,0)"><line stroke="currentColor" y2="6"></line><text fill="currentColor" y="9" dy="0.71em">75</text></g><g class="tick" opacity="1" transform="translate(795,0)"><line stroke="currentColor" y2="6"></line><text fill="currentColor" y="9" dy="0.71em">80</text></g><g class="tick" opacity="1" transform="translate(845,0)"><line stroke="currentColor" y2="6"></line><text fill="currentColor" y="9" dy="0.71em">85</text></g><g class="tick" opacity="1" transform="translate(895,0)"><line stroke="currentColor" y2="6"></line><text fill="currentColor" y="9" dy="0.71em">90</text></g><g class="tick" opacity="1" transform="translate(945,0)"><line stroke="currentColor" y2="6"></line><text fill="currentColor" y="9" dy="0.71em">95</text></g><g class="tick" opacity="1" transform="translate(995,0)"><line stroke="currentColor" y2="6"></line><text fill="currentColor" y="9" dy="0.71em">100</text></g><g class="tick" opacity="1" transform="translate(1045,0)"><line stroke="currentColor" y2="6"></line><text fill="currentColor" y="9" dy="0.71em">105</text></g><g class="tick" opacity="1" transform="translate(1095,0)"><line stroke="currentColor" y2="6"></line><text fill="currentColor" y="9" dy="0.71em">110</text></g><g class="tick" opacity="1" transform="translate(1145,0)"><line stroke="currentColor" y2="6"></line><text fill="currentColor" y="9" dy="0.71em">115</text></g><g class="tick" opacity="1" transform="translate(1195,0)"><line stroke="currentColor" y2="6"></line><text fill="currentColor" y="9" dy="0.71em">120</text></g><g class="tick" opacity="1" transform="translate(1245,0)"><line stroke="currentColor" y2="6"></line><text fill="currentColor" y="9" dy="0.71em">125</text></g><g class="tick" opacity="1" transform="translate(1295,0)"><line stroke="currentColor" y2="6"></line><text fill="currentColor" y="9" dy="0.71em">130</text></g><g class="tick" opacity="1" transform="translate(1345,0)"><line stroke="currentColor" y2="6"></line><text fill="currentColor" y="9" dy="0.71em">135</text></g><g class="tick" opacity="1" transform="translate(1395,0)"><line stroke="currentColor" y2="6"></line><text fill="currentColor" y="9" dy="0.71em">140</text></g><g class="tick" opacity="1" transform="translate(1445.0000000000002,0)"><line stroke="currentColor" y2="6"></line><text fill="currentColor" y="9" dy="0.71em">145</text></g><g class="tick" opacity="1" transform="translate(1495,0)"><line stroke="currentColor" y2="6"></line><text fill="currentColor" y="9" dy="0.71em">150</text></g><g class="tick" opacity="1" transform="translate(1545,0)"><line stroke="currentColor" y2="6"></line><text fill="currentColor" y="9" dy="0.71em">155</text></g><g class="tick" opacity="1" transform="translate(1595,0)"><line stroke="currentColor" y2="6"></line><text fill="currentColor" y="9" dy="0.71em">160</text></g><g class="tick" opacity="1" transform="translate(1644.9999999999998,0)"><line stroke="currentColor" y2="6"></line><text fill="currentColor" y="9" dy="0.71em">165</text></g><g class="tick" opacity="1" transform="translate(1695,0)"><line stroke="currentColor" y2="6"></line><text fill="currentColor" y="9" dy="0.71em">170</text></g></g></g><g transform="translate(100, 46)" width="1740" height="20" style="overflow: visible;"><rect x="0" y="0" width="720" height="20" style="fill: rgb(68, 114, 196);"></rect><text text-anchor="middle" transform="translate(360, 10)" dy=".5ex">DS Red</text><rect x="720" y="0" width="560" height="20" style="fill: rgb(0, 176, 80);"></rect><text text-anchor="middle" transform="translate(1000, 10)" dy=".5ex">Intron</text><rect x="1280" y="0" width="460" height="20" style="fill: rgb(68, 114, 196);"></rect><text text-anchor="middle" transform="translate(1510, 10)" dy=".5ex">DS Red</text></g><g transform="translate(100, 69)" width="1740" height="20"><rect x="0" y="0" width="200" height="20" style="fill: rgba(0, 0, 0, 0); fill-opacity: 0; stroke: purple; stroke-opacity: 1; stroke-width: 3;"></rect><text text-anchor="middle" x="95" y="10" dy=".5ex">Primer</text><rect x="1540" y="0" width="200" height="20" style="fill: rgba(0, 0, 0, 0); fill-opacity: 0; stroke: purple; stroke-opacity: 1; stroke-width: 3;"></rect><text text-anchor="middle" x="1635" y="10" dy=".5ex">Primer</text></g><g transform="translate(100, 69)" width="1740" height="20"><rect x="200" y="0" width="520" height="20" style="fill: rgba(0, 0, 0, 0); fill-opacity: 0; stroke: rgb(68, 114, 196); stroke-opacity: 1; stroke-width: 3;"></rect><text text-anchor="middle" transform="translate(460, 10)" dy=".5ex">Exon1</text><rect x="720" y="0" width="560" height="20" style="fill: rgba(0, 0, 0, 0); fill-opacity: 0; stroke: rgb(0, 176, 80); stroke-opacity: 1; stroke-width: 3;"></rect><text text-anchor="middle" transform="translate(1000, 10)" dy=".5ex">Intron</text><rect x="1280" y="0" width="260" height="20" style="fill: rgba(0, 0, 0, 0); fill-opacity: 0; stroke: rgb(68, 114, 196); stroke-opacity: 1; stroke-width: 3;"></rect><text text-anchor="middle" transform="translate(1410, 10)" dy=".5ex">Exon2</text></g><g transform="translate(0, 92)" width="100" height="0" style="overflow: visible;"></g><g transform="translate(100, 92)" height="0" style="overflow: visible;"></g><line x1="1380" x2="1380" y1="23" y2="92" style="stroke: red; stroke-width: 2;"></line><text text-anchor="middle" x="1380" y="10" dy=".5ex" style="fill: red; font-weight: bold;">DSB</text></g></svg>